<svg width="1em" height="1em" viewBox="0 0 64 64" fill="none" xmlns="http://www.w3.org/2000/svg">
  <path d="M12 14C12 10.6863 14.6863 8 18 8H46C49.3137 8 52 10.6863 52 14V50C52 53.3137 49.3137 56 46 56H18C14.6863 56 12 53.3137 12 50V14Z"/>
  <path d="M23 21H41C43.2091 21 45 22.7909 45 25V25C45 27.2091 43.2091 29 41 29H23C20.7909 29 19 27.2091 19 25V25C19 22.7909 20.7909 21 23 21Z" fill="white"/>
  <path d="M19 39C19 35.6863 21.6863 33 25 33H45V39C45 42.3137 42.3137 45 39 45H25C21.6863 45 19 42.3137 19 39Z" fill="white"/>
</svg>
