<svg viewBox="0 0 24 24" xmlns="http://www.w3.org/2000/svg">
  <path fill-rule="evenodd" clip-rule="evenodd" d="M12 2.5c-1.88 0-3.58.76-4.82 1.99A6.79 6.79 0 0 0 5.2 9.3a6.73 6.73 0 0 0 1.98 4.8 6.8 6.8 0 0 0 4.82 1.99h2.5a4.3 4.3 0 0 0 3.03-1.24 4.2 4.2 0 0 0 1.25-3.01 4.2 4.2 0 0 0-1.25-3.01 4.3 4.3 0 0 0-3.03-1.24h-1a.9.9 0 0 0 0 1.8h1c.65 0 1.25.26 1.69.7.43.43.7 1.02.7 1.75s-.27 1.32-.7 1.75c-.44.44-1.04.7-1.69.7H12c-1.37 0-2.61-.55-3.5-1.44A4.92 4.92 0 0 1 7.05 9.3c0-1.37.56-2.6 1.45-3.5A4.97 4.97 0 0 1 12 4.35h4.6a.9.9 0 0 0 0-1.8H12z"/>
  <path d="M9.2 10.9a.9.9 0 0 1 .9-.9h1.9a.9.9 0 1 1 0 1.8h-1.9a.9.9 0 0 1-.9-.9z"/>
</svg>
